<svg width="1910" height="600" viewBox="0 0 1910 600" fill="none" xmlns="http://www.w3.org/2000/svg">
<circle cx="301.5" cy="300.5" r="257.5" stroke="black" stroke-width="44"/>
<circle cx="371.5" cy="240.5" r="47.5" fill="#FACC15"/>
<path fill-rule="evenodd" clip-rule="evenodd" d="M143.562 361C165.697 433.639 228.268 486 302 486C375.732 486 438.303 433.639 460.438 361H401.99C382.754 404.062 343.007 431 302 431C260.993 431 221.246 404.062 202.01 361H143.562Z" fill="black"/>
<path fill-rule="evenodd" clip-rule="evenodd" d="M213.282 158L136 251.072L178.697 286.525L178.883 286.301L229.078 327.974L264.211 285.657L214.018 243.987L255.979 193.453L213.282 158Z" fill="black"/>
<path d="M714.2 439C710.2 439 707 437.933 704.6 435.8C702.467 433.4 701 430.467 700.2 427L652.6 170.6C652.6 169.8 652.467 169.133 652.2 168.6C652.2 168.067 652.2 167.667 652.2 167.4C652.2 165 653 163 654.6 161.4C656.467 159.8 658.467 159 660.6 159H695.8C702.467 159 706.2 161.667 707 167L740.2 348.2L776.2 231C777 228.867 778.333 226.733 780.2 224.6C782.333 222.2 785.4 221 789.4 221H811C815.267 221 818.333 222.2 820.2 224.6C822.067 226.733 823.267 228.867 823.8 231L860.2 347.8L893.4 167C894.2 161.667 897.933 159 904.6 159H939.8C941.933 159 943.8 159.8 945.4 161.4C947 163 947.8 165 947.8 167.4C947.8 167.667 947.8 168.067 947.8 168.6C947.8 169.133 947.667 169.8 947.4 170.6L899.8 427C899.267 430.467 897.8 433.4 895.4 435.8C893 437.933 889.8 439 885.8 439H859C855 439 851.8 437.933 849.4 435.8C847.267 433.667 845.8 431.4 845 429L800.2 295.4L755.4 429C754.333 431.4 752.733 433.667 750.6 435.8C748.467 437.933 745.267 439 741 439H714.2ZM999.563 439C996.896 439 994.629 438.067 992.763 436.2C990.896 434.333 989.962 432.067 989.962 429.4V240.6C989.962 237.933 990.896 235.667 992.763 233.8C994.629 231.933 996.896 231 999.563 231H1032.76C1035.7 231 1037.96 231.933 1039.56 233.8C1041.43 235.667 1042.36 237.933 1042.36 240.6V429.4C1042.36 432.067 1041.43 434.333 1039.56 436.2C1037.96 438.067 1035.7 439 1032.76 439H999.563ZM997.963 196.6C995.029 196.6 992.629 195.8 990.763 194.2C989.163 192.333 988.363 189.933 988.363 187V158.2C988.363 155.533 989.163 153.267 990.763 151.4C992.629 149.533 995.029 148.6 997.963 148.6H1034.36C1037.3 148.6 1039.7 149.533 1041.56 151.4C1043.43 153.267 1044.36 155.533 1044.36 158.2V187C1044.36 189.933 1043.43 192.333 1041.56 194.2C1039.7 195.8 1037.3 196.6 1034.36 196.6H997.963ZM1105.43 439C1102.76 439 1100.5 438.067 1098.63 436.2C1096.76 434.333 1095.83 432.067 1095.83 429.4V164.6C1095.83 161.933 1096.76 159.667 1098.63 157.8C1100.5 155.933 1102.76 155 1105.43 155H1138.63C1141.3 155 1143.56 155.933 1145.43 157.8C1147.3 159.667 1148.23 161.933 1148.23 164.6V429.4C1148.23 432.067 1147.3 434.333 1145.43 436.2C1143.56 438.067 1141.3 439 1138.63 439H1105.43ZM1211.29 439C1208.62 439 1206.36 438.067 1204.49 436.2C1202.62 434.333 1201.69 432.067 1201.69 429.4V164.6C1201.69 161.933 1202.62 159.667 1204.49 157.8C1206.36 155.933 1208.62 155 1211.29 155H1244.49C1247.16 155 1249.42 155.933 1251.29 157.8C1253.16 159.667 1254.09 161.933 1254.09 164.6V429.4C1254.09 432.067 1253.16 434.333 1251.29 436.2C1249.42 438.067 1247.16 439 1244.49 439H1211.29ZM1399.15 443C1377.82 443 1359.82 439.267 1345.15 431.8C1330.75 424.333 1319.68 413.8 1311.95 400.2C1304.48 386.6 1300.22 370.733 1299.15 352.6C1298.88 347.8 1298.75 341.933 1298.75 335C1298.75 328.067 1298.88 322.2 1299.15 317.4C1300.22 299 1304.62 283.133 1312.35 269.8C1320.35 256.2 1331.55 245.667 1345.95 238.2C1360.62 230.733 1378.35 227 1399.15 227C1419.95 227 1437.55 230.733 1451.95 238.2C1466.62 245.667 1477.82 256.2 1485.55 269.8C1493.55 283.133 1498.08 299 1499.15 317.4C1499.42 322.2 1499.55 328.067 1499.55 335C1499.55 341.933 1499.42 347.8 1499.15 352.6C1498.08 370.733 1493.68 386.6 1485.95 400.2C1478.48 413.8 1467.42 424.333 1452.75 431.8C1438.35 439.267 1420.48 443 1399.15 443ZM1399.15 403.4C1413.28 403.4 1424.22 399 1431.95 390.2C1439.68 381.133 1443.95 367.933 1444.75 350.6C1445.02 346.6 1445.15 341.4 1445.15 335C1445.15 328.6 1445.02 323.4 1444.75 319.4C1443.95 302.333 1439.68 289.267 1431.95 280.2C1424.22 271.133 1413.28 266.6 1399.15 266.6C1385.02 266.6 1374.08 271.133 1366.35 280.2C1358.62 289.267 1354.35 302.333 1353.55 319.4C1353.28 323.4 1353.15 328.6 1353.15 335C1353.15 341.4 1353.28 346.6 1353.55 350.6C1354.35 367.933 1358.62 381.133 1366.35 390.2C1374.08 399 1385.02 403.4 1399.15 403.4ZM1594.81 439C1591.08 439 1588.28 438.067 1586.41 436.2C1584.54 434.333 1582.94 431.933 1581.61 429L1524.41 243.4C1524.14 242.067 1524.01 240.867 1524.01 239.8C1524.01 237.4 1524.81 235.4 1526.41 233.8C1528.28 231.933 1530.28 231 1532.41 231H1562.01C1565.21 231 1567.74 231.933 1569.61 233.8C1571.48 235.4 1572.54 237 1572.81 238.6L1612.01 371L1653.61 239.8C1654.14 237.933 1655.34 236.067 1657.21 234.2C1659.08 232.067 1661.88 231 1665.61 231H1685.61C1689.34 231 1692.14 232.067 1694.01 234.2C1695.88 236.067 1697.08 237.933 1697.61 239.8L1739.21 371L1778.41 238.6C1778.68 237 1779.61 235.4 1781.21 233.8C1783.08 231.933 1785.61 231 1788.81 231H1818.41C1820.81 231 1822.81 231.933 1824.41 233.8C1826.28 235.4 1827.21 237.4 1827.21 239.8C1827.21 240.867 1826.94 242.067 1826.41 243.4L1769.21 429C1768.41 431.933 1766.94 434.333 1764.81 436.2C1762.94 438.067 1760.14 439 1756.41 439H1730.41C1726.68 439 1723.74 438.067 1721.61 436.2C1719.48 434.333 1718.01 431.933 1717.21 429L1675.61 302.6L1634.01 429C1632.94 431.933 1631.34 434.333 1629.21 436.2C1627.34 438.067 1624.41 439 1620.41 439H1594.81Z" fill="black"/>
</svg>
