<svg width="500" height="500" viewBox="0 0 500 500" fill="none" xmlns="http://www.w3.org/2000/svg">
<rect width="500" height="500" fill="white"/>
<path d="M113.306 335.264L110.386 332.345C109.242 331.2 108.399 329.789 107.934 328.239V328.239C107.382 326.4 106.302 324.764 104.827 323.535L103.41 322.354C101.801 321.014 100.87 319.027 100.87 316.933V311.689C100.87 310.688 100.059 309.876 99.057 309.876V309.876C98.0554 309.876 97.2435 309.064 97.2435 308.062V303.908C97.2435 302.111 96.4337 300.409 95.039 299.276L85.1856 291.27C82.291 288.918 80.4545 285.509 80.0834 281.798L79.6269 277.233L77.9266 270.007C77.6793 268.956 77.5544 267.88 77.5544 266.8V261.171L78.5907 241.482V235.726C78.5907 234.389 78.3991 233.058 78.0218 231.776L76.5689 226.836C76.1916 225.553 76 224.223 76 222.885V167.191C76 165.947 76.1659 164.708 76.4933 163.507L77.5544 159.617L79.6269 153.917L81.1813 150.29L81.5186 149.616C82.3162 148.02 83.5163 146.661 85.0002 145.672L85.374 145.422C85.687 145.214 85.9785 144.975 86.2444 144.709V144.709C87.3154 143.638 88.768 143.036 90.2826 143.036H90.7131C91.265 143.036 91.8148 142.969 92.3502 142.835L93.0105 142.67C94.7742 142.229 96.6139 142.185 98.3966 142.541L98.6986 142.602C100.137 142.89 101.52 143.407 102.793 144.135L108.124 147.181L116.415 152.363L122.632 157.544L138.694 172.57L144.912 178.788L159.938 193.295L169.782 204.694L177.361 211.799C177.834 212.243 178.35 212.64 178.9 212.983V212.983C181.033 214.317 182.585 216.405 183.247 218.831L183.332 219.143C183.623 220.212 184.085 221.226 184.7 222.148V222.148C186.697 225.144 190.114 226.881 193.712 226.727L208.983 226.078C211.091 225.988 213.151 226.721 214.728 228.123V228.123C216.152 229.389 217.976 230.115 219.881 230.172L249.379 231.066C250.541 231.101 251.704 230.992 252.84 230.739L272.945 226.271C273.943 226.05 274.961 225.938 275.982 225.938H285.828C286.872 225.938 287.913 226.055 288.931 226.286L297.266 228.18C298.284 228.412 299.325 228.528 300.369 228.528H306.648C310.519 228.528 313.852 225.796 314.611 222V222C314.776 221.176 315.068 220.383 315.476 219.648L316.885 217.112C317.261 216.434 317.694 215.789 318.178 215.184V215.184C319.07 214.07 320.127 213.1 321.314 212.308L322.632 211.43L332.118 203.367C332.701 202.871 333.243 202.328 333.738 201.743L338.694 195.886L350.093 183.969L356.829 176.715L369.782 164.798L380.145 156.508L389.99 149.254L392.631 147.786C393.957 147.05 395.449 146.663 396.966 146.663V146.663C398.175 146.663 399.371 146.418 400.482 145.942L401.291 145.595C402.045 145.272 402.828 145.019 403.629 144.841L405.588 144.406C406.585 144.184 407.603 144.073 408.625 144.073H409.544C410.665 144.073 411.78 144.229 412.858 144.537L413.783 144.801C414.496 145.005 415.168 145.329 415.771 145.76L417.641 147.095C418.172 147.474 418.487 148.087 418.487 148.739V148.739C418.487 149.077 418.572 149.409 418.734 149.706L420.465 152.88C421.214 154.253 421.727 155.741 421.984 157.283L422.632 161.171L423.668 176.715V191.741L422.632 219.202L421.849 225.073C421.681 226.334 421.342 227.567 420.84 228.737L420.041 230.601L418.092 234.889C417.667 235.825 417.107 236.694 416.43 237.467V237.467C414.75 239.387 413.824 241.852 413.824 244.403V244.591L414.86 252.881V258.58V264.798L413.824 274.124L412.788 281.896L411.9 288.112C411.801 288.803 411.651 289.486 411.45 290.155L410.7 292.654C410.366 293.768 409.894 294.836 409.296 295.834L407.088 299.513L400.87 307.803L394.135 316.611L391.026 319.72L387.931 322.373C387.577 322.676 387.252 323.012 386.961 323.376L386.264 324.248C385.657 325.006 385.326 325.949 385.326 326.921V326.921C385.326 327.957 384.95 328.958 384.268 329.738L382.328 331.955C381.91 332.433 381.454 332.878 380.966 333.285L379.974 334.112C379.055 334.877 378.239 335.757 377.544 336.729L376 338.891L373.409 342" stroke="url(#paint0_radial_2_2)" stroke-width="30" stroke-linecap="round" stroke-linejoin="round"/>
<rect x="15" y="15" width="470" height="470" rx="50" stroke="url(#paint1_radial_2_2)" stroke-width="30"/>
<defs>
<radialGradient id="paint0_radial_2_2" cx="0" cy="0" r="1" gradientUnits="userSpaceOnUse" gradientTransform="translate(244 165.6) rotate(90.5907) scale(155.208 269.805)">
<stop stop-color="#332FFF"/>
<stop offset="1" stop-color="#9979F4"/>
</radialGradient>
<radialGradient id="paint1_radial_2_2" cx="0" cy="0" r="1" gradientUnits="userSpaceOnUse" gradientTransform="translate(250 469.5) rotate(-90) scale(436.5)">
<stop stop-color="#5A4BFC"/>
<stop offset="1" stop-color="#9A7AF5"/>
</radialGradient>
</defs>
</svg>
